PathFileType	4	(X/Y/Z)	/Users/itak/Documents/Research/Walk-IL/dataset/trc/00067_00006.trc
DataRate	CameraRate	NumFrames	NumMarkers	Units	OrigDataRate	OrigDataStartFrame	OrigNumFrames
100.000000	100.000000	4	53	mm	100.000000	170	680
Frame#	Time	RPSI			LPSI			L3			STRN			T10			C7			CLAV			RBAK			LBAK			LSHO			LUPA			LAEL			LAOL			LWTS			LWPS			LFRA			LIFD			LHPS			LHTS			RSHO			RUPA			RAEL			RAOL			RWTS			RWPS			RFRA			RIFD			RHTS			RHPS			RBHD			LFHD			RFHD			LBHD			LHIP			RHIP			RASI			LASI			LKNE			LTHI			LANK			LTIP			LTOE			LMT1			LMT5			LHEE			RKNE			RTHI			RANK			RTIP			RTOE			RMT1			RMT5			RHEE			
		X1	Y1	Z1	X2	Y2	Z2	X3	Y3	Z3	X4	Y4	Z4	X5	Y5	Z5	X6	Y6	Z6	X7	Y7	Z7	X8	Y8	Z8	X9	Y9	Z9	X10	Y10	Z10	X11	Y11	Z11	X12	Y12	Z12	X13	Y13	Z13	X14	Y14	Z14	X15	Y15	Z15	X16	Y16	Z16	X17	Y17	Z17	X18	Y18	Z18	X19	Y19	Z19	X20	Y20	Z20	X21	Y21	Z21	X22	Y22	Z22	X23	Y23	Z23	X24	Y24	Z24	X25	Y25	Z25	X26	Y26	Z26	X27	Y27	Z27	X28	Y28	Z28	X29	Y29	Z29	X30	Y30	Z30	X31	Y31	Z31	X32	Y32	Z32	X33	Y33	Z33	X34	Y34	Z34	X35	Y35	Z35	X36	Y36	Z36	X37	Y37	Z37	X38	Y38	Z38	X39	Y39	Z39	X40	Y40	Z40	X41	Y41	Z41	X42	Y42	Z42	X43	Y43	Z43	X44	Y44	Z44	X45	Y45	Z45	X46	Y46	Z46	X47	Y47	Z47	X48	Y48	Z48	X49	Y49	Z49	X50	Y50	Z50	X51	Y51	Z51	X52	Y52	Z52	X53	Y53	Z53	

171	1.7	884.0469970703125	1025.041137695312	633.3229370117188	716.403564453125	1006.619262695312	589.2333374023438	798.2567749023438	1077.860107421875	607.8731079101562	903.3477172851562	1268.415405273438	367.8132629394531	796.948486328125	1212.928344726562	619.3875732421875	833.8483276367188	1476.641967773438	558.583984375	896.3494262695312	1383.861083984375	394.2178039550781	870.8759765625	1337.375244140625	646.0037231445312	729.248291015625	1446.234619140625	543.181640625	700.7368774414062	1449.31689453125	420.6657409667969	611.09521484375	1331.81103515625	413.2607727050781	572.0365600585938	1120.746337890625	393.1523132324219	630.6298217773438	1101.630737304688	482.0532836914062	640.1950073242188	875.2540283203125	326.1020202636719	563.3969116210938	869.7107543945312	362.9445495605469	560.9942626953125	1011.8203125	371.5181274414062	648.7506103515625	688.8488159179688	320.3870544433594	572.8355102539062	787.3027954101562	333.7762451171875	637.9134521484375	792.2373657226562	304.3028259277344	1015.314575195312	1433.73095703125	565.9729614257812	1068.103759765625	1369.983520507812	605.8284301757812	1099.612670898438	1116.453369140625	675.1934204101562	1021.812438964844	1082.078979492188	620.76416015625	1145.164916992188	851.8916625976562	559.032958984375	1159.107421875	850.0288696289062	645.5252075195312	1118.272216796875	1037.112670898438	675.4497680664062	1130.211547851562	662.2347412109375	585.1262817382812	1157.76025390625	744.315673828125	558.5873413085938	1177.496826171875	757.4373779296875	632.0907592773438	838.3715209960938	1651.349853515625	533.3436889648438	928.3212280273438	1678.029174804688	338.4315185546875	803.789306640625	1679.093139648438	360.2703857421875	972.1220092773438	1642.4443359375	500.6048278808594	664.4027099609375	948.4539184570312	456.851806640625	979.629638671875	955.5944213867188	599.7117309570312	1007.602722167969	970.5694580078125	476.1987609863281	758.9019165039062	959.2039184570312	376.8899841308594	781.8958740234375	511.7615051269531	255.6771240234375	722.5530395507812	644.2754516601562	319.9783020019531	708.292236328125	197.1832275390625	629.1357421875	732.5188598632812	336.8331604003906	452.3964233398438	769.4195556640625	69.60681915283203	485.3778381347656	805.379150390625	101.8317794799805	536.9185180664062	697.0518798828125	122.725944519043	551.2870483398438	769.2757568359375	237.5994110107422	684.7167358398438	1014.533813476562	516.6063842773438	485.0484313964844	1025.368286132812	787.2221069335938	507.4695739746094	1005.894287109375	29.99484062194824	575.7457885742188	1021.477844238281	391.2861633300781	504.5699768066406	1018.701782226562	32.97928619384766	357.7025451660156	965.97509765625	42.78889465332031	406.9411010742188	1050.18994140625	33.54973983764648	459.6736755371094	939.6654052734375	36.86616897583008	608.2330322265625	
172	1.71	888.4166259765625	1025.516967773438	625.6095581054688	720.3673095703125	1007.153137207031	583.5877685546875	802.65576171875	1078.401489257812	601.6321411132812	904.4384765625	1268.84765625	359.5401306152344	801.9817504882812	1213.450073242188	612.6887817382812	838.1013793945312	1477.091796875	551.1624755859375	897.845703125	1384.324829101562	385.9248962402344	876.4889526367188	1337.887329101562	638.0947875976562	733.3553466796875	1446.790161132812	537.5192260742188	702.7261962890625	1449.901489257812	415.5264282226562	612.5555419921875	1332.728149414062	410.1724548339844	572.1668701171875	1121.808471679688	392.0118713378906	632.8056030273438	1102.947387695312	479.6553955078125	637.6038208007812	875.625	324.6301574707031	561.6510009765625	870.6058959960938	363.2705993652344	560.1095581054688	1012.812927246094	371.1671447753906	645.3067626953125	689.1366577148438	319.7808837890625	570.0969848632812	787.9888305664062	334.4281616210938	634.421630859375	792.4346313476562	303.3828735351562	1019.568115234375	1434.205810546875	555.7352294921875	1073.19921875	1370.42919921875	594.6089477539062	1107.198120117188	1116.370849609375	661.6597290039062	1028.392456054688	1082.020141601562	608.5245361328125	1151.764282226562	852.8704223632812	542.7731323242188	1167.460815429688	850.5083618164062	628.982421875	1126.18896484375	1037.164306640625	660.96630859375	1138.564331054688	662.957763671875	567.9234008789062	1165.037109375	745.3997192382812	541.3644409179688	1186.223388671875	758.1644897460938	614.5335693359375	842.11767578125	1651.944091796875	525.3458862304688	928.941162109375	1678.08642578125	328.9561462402344	804.7366333007812	1679.12353515625	352.7496643066406	975.3442993164062	1643.11572265625	490.5646057128906	667.1705322265625	949.8305053710938	450.9511413574219	983.465576171875	955.851318359375	591.311279296875	1010.219421386719	970.4654541015625	467.4807434082031	760.5997314453125	959.8662719726562	370.7194213867188	782.740234375	516.6475830078125	242.1882934570312	723.634765625	647.8055419921875	309.2114868164062	718.4922485351562	189.2509613037109	606.0697631835938	738.1556396484375	334.9395751953125	434.3147583007812	776.8316040039062	69.19411468505859	455.2462768554688	813.7634887695312	98.58654022216797	507.6910705566406	705.8159790039062	118.7405700683594	525.0338134765625	780.5335693359375	227.1564331054688	662.303466796875	1015.774230957031	516.0833129882812	482.1028747558594	1027.718139648438	787.110107421875	500.559814453125	1005.837524414062	30.16329956054688	575.6914672851562	1022.20947265625	391.107177734375	502.8204650878906	1018.770751953125	32.91307830810547	357.6007690429688	966.0242919921875	42.83564758300781	406.8379516601562	1050.22412109375	33.56729125976562	459.5795288085938	939.64453125	37.16193008422852	608.1275024414062	
173	1.72	892.7205810546875	1025.854614257812	617.8630981445312	724.2620849609375	1007.525939941406	577.8941040039062	806.9830322265625	1078.802612304688	595.3330078125	905.4052734375	1269.102416992188	351.2630920410156	806.849853515625	1213.82177734375	605.9129638671875	842.1940307617188	1477.366821289062	543.65380859375	899.2174682617188	1384.608764648438	377.6236877441406	881.93505859375	1338.248046875	630.1033935546875	737.3487548828125	1447.181762695312	531.7745361328125	704.6371459960938	1450.299072265625	410.3369140625	614.0008544921875	1333.445678710938	407.0181274414062	572.3630981445312	1122.688110351562	390.7719116210938	634.9548950195312	1104.037963867188	477.1072082519531	635.1289672851562	875.8120727539062	323.1851806640625	560.0530395507812	871.335205078125	363.52197265625	559.3319702148438	1013.632629394531	370.7222595214844	642.028564453125	689.251708984375	319.2467041015625	567.525390625	788.5130615234375	335.0401916503906	631.0994262695312	792.4742431640625	302.5051879882812	1023.660217285156	1434.490112304688	545.4535522460938	1078.083618164062	1370.665771484375	583.3269653320312	1114.45068359375	1116.124267578125	648.0750122070312	1034.694702148438	1081.7783203125	596.270751953125	1158.00341796875	853.7125244140625	526.4685668945312	1175.375244140625	850.8247680664062	612.3663940429688	1133.750122070312	1037.051147460938	646.4329833984375	1146.442749023438	663.5533447265625	550.5350341796875	1171.90478515625	746.3590087890625	524.0468139648438	1194.46875	758.733154296875	596.877197265625	845.743408203125	1652.392578125	517.3141479492188	929.4197387695312	1678.00537109375	319.513427734375	805.5641479492188	1679.015991210938	345.2547607421875	978.400634765625	1643.623046875	480.5138854980469	669.8805541992188	950.9930419921875	445.0847473144531	987.2333984375	955.9739990234375	582.824951171875	1012.713012695312	970.2576904296875	458.685302734375	762.1847534179688	960.353271484375	364.5320129394531	783.3563232421875	521.1958618164062	229.4571228027344	724.5531005859375	651.0076904296875	299.0247192382812	728.263916015625	180.4355010986328	582.2396240234375	743.3959350585938	332.4762268066406	416.1275329589844	783.624267578125	68.40013885498047	424.6266784667969	821.5901489257812	94.93317413330078	477.7448120117188	714.0550537109375	114.0968475341797	498.2049865722656	791.3757934570312	215.7715606689453	638.9990844726562	1016.970275878906	515.5426635742188	479.1307983398438	1030.013061523438	786.8935546875	493.6881408691406	1005.778198242188	30.34360122680664	575.627197265625	1022.913391113281	390.9152221679688	501.0169372558594	1018.818298339844	32.86008453369141	357.4988403320312	966.0723266601562	42.88726425170898	406.7406616210938	1050.25537109375	33.58219909667969	459.4821472167969	939.6134033203125	37.42474746704102	608.0039672851562	
174	1.73	896.9467163085938	1026.058349609375	610.0858764648438	728.071044921875	1007.746276855469	572.1223754882812	811.2225341796875	1079.061279296875	588.9561157226562	906.251708984375	1269.176879882812	342.9820556640625	811.55322265625	1214.0498046875	599.0625	846.1270141601562	1477.476806640625	536.060302734375	900.4613647460938	1384.71044921875	369.3102111816406	887.2103881835938	1338.464965820312	622.0325317382812	741.2247314453125	1447.413330078125	525.94384765625	706.4674682617188	1450.503662109375	405.0869750976562	615.4326171875	1333.9521484375	403.7815856933594	572.6353759765625	1123.372680664062	389.4081726074219	637.0704956054688	1104.88818359375	474.3927612304688	632.7879638671875	875.8052368164062	321.7482604980469	558.6090698242188	871.890380859375	363.6794128417969	558.6708374023438	1014.268249511719	370.1584167480469	638.9113159179688	689.1842651367188	318.7617492675781	565.1205444335938	788.8676147460938	335.5826416015625	627.9591064453125	792.3455200195312	301.6502685546875	1027.590209960938	1434.587890625	535.1249389648438	1082.758544921875	1370.698486328125	571.9796142578125	1121.364624023438	1115.714233398438	634.4385986328125	1040.714965820312	1081.3583984375	584.0068359375	1163.876831054688	854.4130859375	510.1312866210938	1182.8408203125	850.9757080078125	595.6932373046875	1140.950317382812	1036.773071289062	631.8527221679688	1153.83447265625	664.0205688476562	532.9862670898438	1178.349487304688	747.1865844726562	506.6526489257812	1202.2158203125	759.137939453125	579.1431274414062	849.2433471679688	1652.688354492188	509.2456359863281	929.7612915039062	1677.784057617188	310.1048278808594	806.2781372070312	1678.772583007812	337.7785339355469	981.2879028320312	1643.955810546875	470.4491271972656	672.4928588867188	951.9002075195312	439.2920837402344	990.9183349609375	955.966552734375	574.2574462890625	1015.08935546875	969.9558715820312	449.8199157714844	763.6738891601562	960.6691284179688	358.3175354003906	783.773193359375	525.34716796875	217.4956512451172	725.3292846679688	653.8413696289062	289.4164733886719	737.6063232421875	170.8957061767578	557.6338500976562	748.2666625976562	329.4817504882812	397.8436279296875	789.7630004882812	67.34346008300781	393.5578308105469	828.8250732421875	90.98785400390625	447.1183166503906	721.757080078125	108.9533081054688	470.8003845214844	801.814453125	203.5908355712891	614.79345703125	1018.128540039062	514.985107421875	476.1164855957031	1032.254638671875	786.5718994140625	486.8453063964844	1005.7138671875	30.5316104888916	575.5526123046875	1023.592956542969	390.7075500488281	499.1480407714844	1018.848449707031	32.82347869873047	357.3977661132812	966.1180419921875	42.94169616699219	406.6519470214844	1050.281372070312	33.58973693847656	459.3864440917969	939.5652465820312	37.66059112548828	607.8662109375	
